<?xml version="1.0" encoding="UTF-8" standalone="no"?>
<svg width="100px" height="35px" viewBox="0 0 100 35" version="1.1" xmlns="http://www.w3.org/2000/svg" xmlns:xlink="http://www.w3.org/1999/xlink">
    <!-- Generator: Sketch 39.1 (31720) - http://www.bohemiancoding.com/sketch -->
    <title>bacon</title>
    <desc>Created with Sketch.</desc>
    <defs></defs>
    <g id="Symbols" stroke="none" stroke-width="1" fill="none" fill-rule="evenodd">
        <g id="bacon">
            <g id="Path-2">
                <path d="M2.20600496,0.823035912 C4.92457667,-1.83991679 8.79337692,7.81884116 21.1446993,7.81884116 C33.4960217,7.81884116 37.6131292,2.73218947e-16 49.1410301,0 C60.668931,0 66.8445922,9.05339503 77.5490717,9.05339503 C88.2535511,9.05339503 95.2526338,-0.823035912 98.134609,1.23455387 C101.016584,3.29214365 100.193163,23.4630551 98.134609,27.1634509 C96.0760553,30.8638467 88.6652618,34.5675083 77.1373609,34.5675083 C65.60946,34.5675083 56.9635343,26.7486671 48.7293194,26.7486671 C40.4951044,26.7486671 30.6140465,34.5675083 21.1446993,34.9790262 C11.6753521,35.3905442 1.38258347,29.6292928 0.559161976,27.983221 C-0.264259518,26.3371492 -0.512566737,3.48598862 2.20600496,0.823035912 Z" fill="#A14525"></path>
                <path d="M0.526885887,9.41658795 C0.526885887,9.41658795 8.75947788,16.0819951 21.1083659,16.0819951 C33.4572538,16.0819951 37.5735498,9 49.0991786,9 C60.6248074,9 66.3876218,15.6654072 77.0899914,15.6654072 C87.792361,15.6654072 99.3179897,8.96546368 99.7296193,9.41658795 C100.141249,9.86771222 100.141249,21.0066631 99.3179897,21.0810505 C98.4947306,21.1554379 88.6156202,23.1639903 77.0899914,23.1639903 C65.5643626,23.1639903 56.920141,16.0819951 48.687549,16.0819951 C40.454957,16.0819951 30.5758466,23.8698156 21.1083659,23.9971662 C11.6408851,24.1245167 0.526885887,19.9197968 0.115256288,19.4146987 C-0.296373312,18.9096007 0.526885887,9.41658795 0.526885887,9.41658795 Z" fill="#CD9480"></path>
            </g>
        </g>
    </g>
</svg>