<?xml version="1.0" encoding="UTF-8" standalone="no"?>
<svg width="102px" height="132px" viewBox="0 0 102 132" version="1.1" xmlns="http://www.w3.org/2000/svg" xmlns:xlink="http://www.w3.org/1999/xlink">
    <!-- Generator: Sketch 39.1 (31720) - http://www.bohemiancoding.com/sketch -->
    <title>green</title>
    <desc>Created with Sketch.</desc>
    <defs></defs>
    <g id="Symbols" stroke="none" stroke-width="1" fill="none" fill-rule="evenodd">
        <g id="green">
            <g>
                <path d="M16,109 C20,101 7.27564682,66.7682155 6.63649922,61.6550347 C5.99735162,56.5418539 5.35820402,46.9546399 15.5845656,62.9333299 C25.8109272,78.9120198 29.0066652,76.994577 29.0066652,75.0771342 C29.0066652,73.1596915 13.0279752,36.0891307 14.945418,30.3368023 C16.8628608,24.584474 32.8415508,54.6244111 37.315584,52.0678207 C41.7896171,49.5112303 24.532632,8.60578399 30.924108,11.1623744 C37.315584,13.7189648 45.6245027,39.9240163 49.4593883,39.9240163 C53.2942739,39.9240163 66.0772259,-1.62057759 69.9121115,0.936012807 C73.7469971,3.4926032 55.2117167,37.3674259 59.0466023,41.2023115 C62.8814879,45.0371971 91.0039822,32.2542451 92.921425,35.4499831 C94.8388678,38.6457211 58.4074547,51.4286731 63.5206355,53.3461159 C68.6338163,55.2635587 104.426082,58.4592967 101.869491,62.2941823 C99.312901,66.1290679 52.6551263,75.0771342 60.9640451,76.994577 C69.2729639,78.9120198 98.6737534,75.7162818 99.312901,79.5511674 C99.9520486,83.386053 48.8202407,88.4992338 57.1291595,92.3341194 C65.4380783,96.169005 95.4780154,98.7255954 92.921425,103.838776 C90.3648346,108.951957 46.7962823,102.903914 35.3981412,108.951957 C24,115 6.43811285,131.644246 4.71905643,131.322123 C3,131 -0.394124363,125.569795 0.884170834,124.291499 C2.16246603,123.013204 12,117 16,109 Z" id="Path-3" fill="#5E9D29"></path>
                <path d="M25,105 C25,105 30,100 30,96 C30,92 22.3102816,84.0691552 23,82 C23.6897184,79.9308448 31,87 33,87 C35,87 42,74 42,71 C42,68 31.5253509,59.8985965 32,58 C32.4746491,56.1014035 41.0946759,63.5447483 44,63 C46.9053241,62.4552517 48,55 48,55 C48,55 42.5493792,46.5771728 43,45 C43.4506208,43.4228272 50,48 50,48 C50,48 53.797405,40.518962 55,41 C56.202595,41.481038 55,50 55,50 C55,50 65,44.9455955 65,46 C65,47.0544045 55,54 55,54 C55,54 52,58 53,59 C54,60 72,59.9880809 72,62 C72,64.0119191 56.9722954,64.3518031 53,67 C49.0277046,69.6481969 46,76 48,78 C50,80 66.8085522,79.1133782 66,81 C65.1914478,82.8866218 47,83 45,85 C43,87 40,93 40,95 C40,97 53.8185228,97.6357954 53,99 C52.1814772,100.364205 40,99 37,100 C34,101 27,107 27,107 L25,105 Z" id="Path-4" fill="#8CD251"></path>
            </g>
        </g>
    </g>
</svg>